<svg width="100" height="100" viewBox="0 0 100 100" fill="none" xmlns="http://www.w3.org/2000/svg">
<path d="M46.4512 80.7285C41.4473 80.7285 37.3594 79.6895 34.1875 77.6113C31.0156 75.5332 28.6914 72.7168 27.2148 69.1621C25.7383 65.5801 25 61.5332 25 57.0215C25 53.7949 25.2734 50.6367 25.8203 47.5469C26.3945 44.4297 27.2285 41.4492 28.3223 38.6055C29.416 35.7617 30.7832 33.1504 32.4238 30.7715C34.0918 28.3926 36.0195 26.3281 38.207 24.5781C40.4219 22.8008 42.8828 21.4336 45.5898 20.4766C48.3242 19.4922 51.332 19 54.6133 19C61.0391 19 66.125 20.9824 69.8711 24.9473C73.6445 28.9121 75.5312 34.7773 75.5312 42.543C75.5312 45.1953 75.2988 47.9707 74.834 50.8691C74.3965 53.7676 73.6992 56.6523 72.7422 59.5234C71.7852 62.3672 70.541 65.0605 69.0098 67.6035C67.5059 70.1465 65.6738 72.4023 63.5137 74.3711C61.3809 76.3398 58.8926 77.8984 56.0488 79.0469C53.2324 80.168 50.0332 80.7285 46.4512 80.7285ZM46.6152 76.9551C49.5137 76.9551 52.125 76.4492 54.4492 75.4375C56.8008 74.4258 58.8789 73.0312 60.6836 71.2539C62.5156 69.4766 64.0879 67.4531 65.4004 65.1836C66.7129 62.9141 67.793 60.4941 68.6406 57.9238C69.4883 55.3535 70.1172 52.7559 70.5273 50.1309C70.9375 47.4785 71.1426 44.9355 71.1426 42.502C71.1426 36.377 69.7207 31.5645 66.877 28.0645C64.0605 24.5645 59.8633 22.8145 54.2852 22.8145C51.3867 22.8145 48.748 23.293 46.3691 24.25C44.0176 25.1797 41.9121 26.4785 40.0527 28.1465C38.2207 29.8145 36.6348 31.7559 35.2949 33.9707C33.9551 36.1855 32.8477 38.5645 31.9727 41.1074C31.0977 43.6504 30.4414 46.2617 30.0039 48.9414C29.5938 51.6211 29.3887 54.2734 29.3887 56.8984C29.3887 60.8906 30.0039 64.3906 31.2344 67.3984C32.4922 70.4062 34.3926 72.7578 36.9355 74.4531C39.4785 76.1211 42.7051 76.9551 46.6152 76.9551Z" fill="black"/>
<path d="M38.1585 62.9082V38.7882H44.0985L56.9145 55.8162V38.7882H61.4505V62.9082H56.8785L42.6945 44.0442V62.9082H38.1585Z" fill="black"/>
</svg>
