<svg width="194" height="35" viewBox="0 0 194 35" fill="none" xmlns="http://www.w3.org/2000/svg">
<path d="M89.2378 26.1035V1.98352H95.1778L107.994 19.0115V1.98352H112.53V26.1035H107.958L93.7738 7.23951V26.1035H89.2378Z" fill="white"/>
<path d="M120.007 26.1035V1.98352H141.319V6.12352H124.723V11.8115H138.835V15.9155H124.723V21.9635H141.607V26.1035H120.007Z" fill="white"/>
<path d="M145.081 26.1035L154.045 13.6835L145.225 1.98352H151.057L157.681 10.6955L163.945 1.98352H169.381L160.561 14.2235L169.561 26.1035H163.693L156.925 17.1755L150.517 26.1035H145.081Z" fill="white"/>
<path d="M180.355 26.1035V6.19551H171.499V1.98352H193.927V6.19551H185.071V26.1035H180.355Z" fill="white"/>
<path d="M9.50977 26.4551C7.43555 26.4551 5.68945 26.0508 4.27148 25.2422C2.86523 24.4219 1.79883 23.2676 1.07227 21.7793C0.357422 20.291 0 18.5508 0 16.5586C0 15.1523 0.123047 13.7754 0.369141 12.4277C0.626953 11.0684 1.00195 9.77344 1.49414 8.54297C1.98633 7.3125 2.60156 6.17578 3.33984 5.13281C4.08984 4.08984 4.95703 3.1875 5.94141 2.42578C6.92578 1.65234 8.02734 1.05469 9.24609 0.632812C10.4766 0.210938 11.8184 0 13.2715 0C16.2715 0 18.5684 0.884766 20.1621 2.6543C21.7676 4.42383 22.5703 6.82617 22.5703 9.86133C22.5703 11.2676 22.4531 12.6562 22.2188 14.0273C21.9961 15.3867 21.6445 16.6875 21.1641 17.9297C20.6953 19.1602 20.1035 20.2969 19.3887 21.3398C18.6738 22.3711 17.8301 23.2676 16.8574 24.0293C15.8965 24.791 14.8008 25.3887 13.5703 25.8223C12.3516 26.2441 10.998 26.4551 9.50977 26.4551ZM9.75586 22.8516C10.6113 22.8516 11.4141 22.6992 12.1641 22.3945C12.9141 22.0898 13.5996 21.6621 14.2207 21.1113C14.8535 20.5488 15.416 19.875 15.9082 19.0898C16.4121 18.3047 16.834 17.4316 17.1738 16.4707C17.5254 15.5098 17.7949 14.4785 17.9824 13.377C18.1699 12.2637 18.2637 11.1035 18.2637 9.89648C18.2637 7.93945 17.8008 6.39844 16.875 5.27344C15.9609 4.14844 14.6543 3.58594 12.9551 3.58594C12.0762 3.58594 11.25 3.74414 10.4766 4.06055C9.71484 4.36523 9.01172 4.81055 8.36719 5.39648C7.72266 5.9707 7.14844 6.65625 6.64453 7.45312C6.15234 8.23828 5.73047 9.11133 5.37891 10.0723C5.02734 11.0332 4.75781 12.0586 4.57031 13.1484C4.39453 14.2266 4.30664 15.3516 4.30664 16.5234C4.30664 17.8594 4.51758 19.002 4.93945 19.9512C5.37305 20.9004 5.99414 21.6211 6.80273 22.1133C7.62305 22.6055 8.60742 22.8516 9.75586 22.8516Z" fill="white"/>
<path d="M22.0085 34.7344L27.9675 6.64453H31.1843L30.7976 10.002H30.9382C31.4187 9.35742 31.9577 8.75391 32.5554 8.19141C33.153 7.62891 33.821 7.17188 34.5593 6.82031C35.3093 6.46875 36.1296 6.29297 37.0202 6.29297C38.0163 6.29297 38.9187 6.53906 39.7273 7.03125C40.5476 7.51172 41.198 8.26172 41.6784 9.28125C42.1706 10.2891 42.4167 11.5898 42.4167 13.1836C42.4167 14.5195 42.2761 15.832 41.9948 17.1211C41.7253 18.3984 41.3269 19.5996 40.7995 20.7246C40.2722 21.8496 39.6277 22.8457 38.8659 23.7129C38.1159 24.5684 37.2605 25.2422 36.2995 25.7344C35.3386 26.2148 34.2839 26.4551 33.1355 26.4551C32.2917 26.4551 31.5652 26.3145 30.9558 26.0332C30.3581 25.7402 29.8542 25.3535 29.4441 24.873C29.0339 24.3926 28.6882 23.8652 28.407 23.291H28.2488C28.1902 23.9824 28.1081 24.7031 28.0027 25.4531C27.8972 26.2031 27.7683 26.918 27.6159 27.5977L26.1042 34.7344H22.0085ZM32.5905 23.0977C33.2585 23.0977 33.8796 22.916 34.4538 22.5527C35.028 22.1777 35.5495 21.668 36.0183 21.0234C36.487 20.3789 36.8855 19.6348 37.2136 18.791C37.5417 17.9473 37.7937 17.0566 37.9695 16.1191C38.1452 15.1699 38.2331 14.2148 38.2331 13.2539C38.2331 12.0586 37.9987 11.1621 37.53 10.5645C37.073 9.95508 36.3816 9.65039 35.4558 9.65039C34.8933 9.65039 34.3542 9.79688 33.8386 10.0898C33.323 10.3711 32.8425 10.7578 32.3972 11.25C31.9519 11.7422 31.5476 12.3164 31.1843 12.9727C30.821 13.6172 30.5105 14.3086 30.2527 15.0469C29.9948 15.7852 29.7956 16.5352 29.655 17.2969C29.5261 18.0586 29.4616 18.7969 29.4616 19.5117C29.4616 20.5898 29.7253 21.457 30.2527 22.1133C30.7917 22.7695 31.571 23.0977 32.5905 23.0977Z" fill="white"/>
<path d="M52.4545 26.4551C50.9663 26.4551 49.6655 26.1738 48.5522 25.6113C47.4506 25.0371 46.5952 24.1992 45.9858 23.0977C45.3881 21.9844 45.0893 20.625 45.0893 19.0195C45.0893 17.4258 45.3178 15.873 45.7748 14.3613C46.2319 12.8379 46.9057 11.4668 47.7963 10.248C48.687 9.0293 49.7709 8.0625 51.0483 7.34766C52.3256 6.63281 53.7788 6.27539 55.4077 6.27539C57.3998 6.27539 58.894 6.72656 59.8901 7.62891C60.8979 8.51953 61.4018 9.70312 61.4018 11.1797C61.4018 12.1875 61.1733 13.1074 60.7163 13.9395C60.2592 14.7715 59.562 15.4922 58.6245 16.1016C57.6987 16.6992 56.5209 17.1621 55.0913 17.4902C53.6733 17.8184 52.0034 17.9824 50.0815 17.9824H49.2905C49.2788 18.1582 49.267 18.3398 49.2553 18.5273C49.2436 18.7031 49.2377 18.8789 49.2377 19.0547C49.2377 20.3555 49.5776 21.3809 50.2573 22.1309C50.937 22.8691 51.9272 23.2383 53.228 23.2383C54.2123 23.2383 55.1205 23.1152 55.9526 22.8691C56.7846 22.623 57.7163 22.2539 58.7475 21.7617V25.0137C57.7983 25.4707 56.8373 25.8281 55.8647 26.0859C54.892 26.332 53.7553 26.4551 52.4545 26.4551ZM49.8002 14.9941H50.3979C51.8276 14.9941 53.0698 14.8594 54.1245 14.5898C55.1791 14.3086 55.9936 13.8984 56.5678 13.3594C57.142 12.8086 57.4291 12.1406 57.4291 11.3555C57.4291 10.7461 57.2358 10.2715 56.8491 9.93164C56.4741 9.58008 55.9116 9.4043 55.1616 9.4043C54.4233 9.4043 53.6967 9.63281 52.9819 10.0898C52.267 10.5352 51.6284 11.1797 51.0659 12.0234C50.5034 12.8555 50.0815 13.8457 49.8002 14.9941Z" fill="white"/>
<path d="M62.4748 26.1035L66.6232 6.5918H69.9455L69.5236 10.2656H69.6291C70.0978 9.57422 70.6427 8.92383 71.2638 8.31445C71.8849 7.69336 72.588 7.18945 73.3732 6.80273C74.1701 6.41602 75.0607 6.22266 76.0451 6.22266C77.1232 6.22266 78.0373 6.43359 78.7873 6.85547C79.5373 7.27734 80.1056 7.88086 80.4923 8.66602C80.8791 9.45117 81.0724 10.3887 81.0724 11.4785C81.0724 11.959 81.0314 12.4746 80.9494 13.0254C80.8791 13.5645 80.7853 14.0918 80.6681 14.6074L78.2248 26.1035H74.0236L76.5197 14.2734C76.6252 13.8164 76.7013 13.4062 76.7482 13.043C76.8068 12.6797 76.8361 12.3398 76.8361 12.0234C76.8361 11.25 76.6427 10.6699 76.256 10.2832C75.881 9.89648 75.3185 9.70312 74.5685 9.70312C73.7482 9.70312 72.9396 10.0195 72.1427 10.6523C71.3459 11.2852 70.6252 12.2051 69.9806 13.4121C69.3361 14.6191 68.8263 16.0781 68.4513 17.7891L66.6935 26.1035H62.4748Z" fill="white"/>
</svg>
